<?xml version="1.0" encoding="UTF-8" standalone="no"?>
<!DOCTYPE svg PUBLIC "-//W3C//DTD SVG 1.1//EN"
 "http://www.w3.org/Graphics/SVG/1.1/DTD/svg11.dtd">
<!-- Generated by graphviz version 14.1.3 (20260303.0454)
 -->
<!-- Title: HealthcareFlow Pages: 1 -->
<svg width="1107pt" height="1600pt"
 viewBox="0.00 0.00 1107.00 1600.00" xmlns="http://www.w3.org/2000/svg" xmlns:xlink="http://www.w3.org/1999/xlink">
<g id="graph0" class="graph" transform="scale(1 1) rotate(0) translate(4 1596.25)">
<title>HealthcareFlow</title>
<polygon fill="white" stroke="none" points="-4,4 -4,-1596.25 1102.75,-1596.25 1102.75,4 -4,4"/>
<!-- intro -->
<g id="node1" class="node">
<title>intro</title>
<path fill="#eef2ff" stroke="#1e3a8a" d="M346,-1592.25C346,-1592.25 27,-1592.25 27,-1592.25 21,-1592.25 15,-1586.25 15,-1580.25 15,-1580.25 15,-1441 15,-1441 15,-1435 21,-1429 27,-1429 27,-1429 346,-1429 346,-1429 352,-1429 358,-1435 358,-1441 358,-1441 358,-1580.25 358,-1580.25 358,-1586.25 352,-1592.25 346,-1592.25"/>
<text xml:space="preserve" text-anchor="start" x="168.88" y="-1568.05" font-family="Helvetica,sans-Serif" font-weight="bold" font-size="16.00">intro</text>
<text xml:space="preserve" text-anchor="start" x="186.12" y="-1552.75" font-family="Helvetica,sans-Serif" font-size="3.00"> </text>
<text xml:space="preserve" text-anchor="start" x="29" y="-1532.55" font-family="Helvetica,sans-Serif" font-weight="bold" font-size="11.00" fill="#6b7280">Task message</text>
<text xml:space="preserve" text-anchor="start" x="29" y="-1510.25" font-family="Helvetica,sans-Serif" font-size="12.00">Greet the patient warmly and introduce yourself</text>
<text xml:space="preserve" text-anchor="start" x="29" y="-1487.5" font-family="Helvetica,sans-Serif" font-size="12.00">as a medical screening assistant.</text>
<text xml:space="preserve" text-anchor="start" x="29" y="-1464.75" font-family="Helvetica,sans-Serif" font-size="12.00">Explain that you&#39;ll help with a brief screening questionnaire.</text>
<text xml:space="preserve" text-anchor="start" x="29" y="-1442" font-family="Helvetica,sans-Serif" font-size="12.00">After consent, use the transition tool to move to data intake.</text>
</g>
<!-- t_intro_to_intake -->
<g id="node6" class="node">
<title>t_intro_to_intake</title>
<path fill="#fff7ed" stroke="#c2410c" stroke-dasharray="5,2" d="M249.62,-1323.5C249.62,-1323.5 123.38,-1323.5 123.38,-1323.5 117.38,-1323.5 111.38,-1317.5 111.38,-1311.5 111.38,-1311.5 111.38,-1299.5 111.38,-1299.5 111.38,-1293.5 117.38,-1287.5 123.38,-1287.5 123.38,-1287.5 249.62,-1287.5 249.62,-1287.5 255.62,-1287.5 261.62,-1293.5 261.62,-1299.5 261.62,-1299.5 261.62,-1311.5 261.62,-1311.5 261.62,-1317.5 255.62,-1323.5 249.62,-1323.5"/>
<text xml:space="preserve" text-anchor="middle" x="186.5" y="-1300.47" font-family="Helvetica,sans-Serif" font-size="12.00" fill="#9a3412">transition_to_data_intake</text>
</g>
<!-- intro&#45;&gt;t_intro_to_intake -->
<g id="edge1" class="edge">
<title>intro&#45;&gt;t_intro_to_intake</title>
<path fill="none" stroke="black" d="M186.5,-1428.76C186.5,-1395.64 186.5,-1359.44 186.5,-1335.1"/>
<polygon fill="black" stroke="black" points="190,-1335.36 186.5,-1325.36 183,-1335.36 190,-1335.36"/>
<text xml:space="preserve" text-anchor="middle" x="285.5" y="-1377.6" font-family="Helvetica,sans-Serif" font-size="12.00" fill="#374151"> &#160;Use this function to transition to</text>
<text xml:space="preserve" text-anchor="middle" x="285.5" y="-1364.85" font-family="Helvetica,sans-Serif" font-size="12.00" fill="#374151"> &#160;the data_intake phase after consent.</text>
</g>
<!-- data_intake -->
<g id="node2" class="node">
<title>data_intake</title>
<path fill="#eef2ff" stroke="#1e3a8a" d="M361,-1206.5C361,-1206.5 12,-1206.5 12,-1206.5 6,-1206.5 0,-1200.5 0,-1194.5 0,-1194.5 0,-996 0,-996 0,-990 6,-984 12,-984 12,-984 361,-984 361,-984 367,-984 373,-990 373,-996 373,-996 373,-1194.5 373,-1194.5 373,-1200.5 367,-1206.5 361,-1206.5"/>
<text xml:space="preserve" text-anchor="start" x="142.25" y="-1182.3" font-family="Helvetica,sans-Serif" font-weight="bold" font-size="16.00">data_intake</text>
<text xml:space="preserve" text-anchor="start" x="186.12" y="-1167" font-family="Helvetica,sans-Serif" font-size="3.00"> </text>
<text xml:space="preserve" text-anchor="start" x="14" y="-1146.8" font-family="Helvetica,sans-Serif" font-weight="bold" font-size="11.00" fill="#6b7280">Task message</text>
<text xml:space="preserve" text-anchor="start" x="14" y="-1124.5" font-family="Helvetica,sans-Serif" font-size="12.00">Collect full name, age, primary reason for visit, and symptoms.</text>
<text xml:space="preserve" text-anchor="start" x="14" y="-1101.75" font-family="Helvetica,sans-Serif" font-size="12.00">Ask one question at a time and keep the tone conversational.</text>
<text xml:space="preserve" text-anchor="start" x="14" y="-1079" font-family="Helvetica,sans-Serif" font-size="12.00">If the patient shows something on camera, call the vision tool.</text>
<text xml:space="preserve" text-anchor="start" x="14" y="-1056.25" font-family="Helvetica,sans-Serif" font-size="12.00">When enough info is gathered, transition to appointment booking.</text>
<text xml:space="preserve" text-anchor="start" x="186.12" y="-1040.25" font-family="Helvetica,sans-Serif" font-size="3.00"> </text>
<text xml:space="preserve" text-anchor="start" x="14" y="-1019.1" font-family="Helvetica,sans-Serif" font-weight="bold" font-size="11.00" fill="#6b7280">pre_actions:</text>
<text xml:space="preserve" text-anchor="start" x="79.25" y="-1019.1" font-family="Helvetica,sans-Serif" font-size="12.00"> </text>
<text xml:space="preserve" text-anchor="start" x="82.25" y="-1019.1" font-family="Helvetica,sans-Serif" font-style="italic" font-size="11.00" fill="#0e7490">Patient Intake Pre Action</text>
<text xml:space="preserve" text-anchor="start" x="14" y="-996.35" font-family="Helvetica,sans-Serif" font-weight="bold" font-size="11.00" fill="#6b7280">post_actions:</text>
<text xml:space="preserve" text-anchor="start" x="85.25" y="-996.35" font-family="Helvetica,sans-Serif" font-size="12.00"> </text>
<text xml:space="preserve" text-anchor="start" x="88.25" y="-996.35" font-family="Helvetica,sans-Serif" font-style="italic" font-size="11.00" fill="#9333ea">Patient Intake Post Action</text>
</g>
<!-- t_intake_to_booking -->
<g id="node7" class="node">
<title>t_intake_to_booking</title>
<path fill="#fff7ed" stroke="#c2410c" stroke-dasharray="5,2" d="M276.25,-878.5C276.25,-878.5 96.75,-878.5 96.75,-878.5 90.75,-878.5 84.75,-872.5 84.75,-866.5 84.75,-866.5 84.75,-854.5 84.75,-854.5 84.75,-848.5 90.75,-842.5 96.75,-842.5 96.75,-842.5 276.25,-842.5 276.25,-842.5 282.25,-842.5 288.25,-848.5 288.25,-854.5 288.25,-854.5 288.25,-866.5 288.25,-866.5 288.25,-872.5 282.25,-878.5 276.25,-878.5"/>
<text xml:space="preserve" text-anchor="middle" x="186.5" y="-855.48" font-family="Helvetica,sans-Serif" font-size="12.00" fill="#9a3412">transition_to_appointment_booking</text>
</g>
<!-- data_intake&#45;&gt;t_intake_to_booking -->
<g id="edge3" class="edge">
<title>data_intake&#45;&gt;t_intake_to_booking</title>
<path fill="none" stroke="black" d="M186.5,-983.67C186.5,-949.11 186.5,-913.87 186.5,-890.17"/>
<polygon fill="black" stroke="black" points="190,-890.41 186.5,-880.41 183,-890.41 190,-890.41"/>
<text xml:space="preserve" text-anchor="middle" x="266.38" y="-932.6" font-family="Helvetica,sans-Serif" font-size="12.00" fill="#4b5563"> &#160;Transition to the appointment</text>
<text xml:space="preserve" text-anchor="middle" x="266.38" y="-919.85" font-family="Helvetica,sans-Serif" font-size="12.00" fill="#4b5563"> &#160;booking phase.</text>
</g>
<!-- intake_vision -->
<g id="node10" class="node">
<title>intake_vision</title>
<path fill="#ecfeff" stroke="#0e7490" stroke-dasharray="5,2" d="M709.5,-1113.25C709.5,-1113.25 627.5,-1113.25 627.5,-1113.25 621.5,-1113.25 615.5,-1107.25 615.5,-1101.25 615.5,-1101.25 615.5,-1089.25 615.5,-1089.25 615.5,-1083.25 621.5,-1077.25 627.5,-1077.25 627.5,-1077.25 709.5,-1077.25 709.5,-1077.25 715.5,-1077.25 721.5,-1083.25 721.5,-1089.25 721.5,-1089.25 721.5,-1101.25 721.5,-1101.25 721.5,-1107.25 715.5,-1113.25 709.5,-1113.25"/>
<text xml:space="preserve" text-anchor="middle" x="668.5" y="-1096.6" font-family="Helvetica,sans-Serif" font-size="12.00" fill="#155e75">VIEW_CAMERA</text>
<text xml:space="preserve" text-anchor="middle" x="668.5" y="-1083.85" font-family="Helvetica,sans-Serif" font-size="12.00" fill="#155e75">(vision)</text>
</g>
<!-- data_intake&#45;&gt;intake_vision -->
<g id="edge9" class="edge">
<title>data_intake&#45;&gt;intake_vision</title>
<path fill="none" stroke="#6b7280" stroke-dasharray="5,2" d="M373.2,-1095.25C460.04,-1095.25 556.81,-1095.25 615.14,-1095.25"/>
<text xml:space="preserve" text-anchor="middle" x="494.25" y="-1112.35" font-family="Helvetica,sans-Serif" font-size="12.00" fill="#374151"> &#160;Use this tool when the user asks</text>
<text xml:space="preserve" text-anchor="middle" x="494.25" y="-1099.6" font-family="Helvetica,sans-Serif" font-size="12.00" fill="#374151"> &#160;you to look at the screen.</text>
</g>
<!-- appointment_booking -->
<g id="node3" class="node">
<title>appointment_booking</title>
<path fill="#eef2ff" stroke="#1e3a8a" d="M326.12,-761.5C326.12,-761.5 46.88,-761.5 46.88,-761.5 40.88,-761.5 34.88,-755.5 34.88,-749.5 34.88,-749.5 34.88,-610.25 34.88,-610.25 34.88,-604.25 40.88,-598.25 46.88,-598.25 46.88,-598.25 326.12,-598.25 326.12,-598.25 332.12,-598.25 338.12,-604.25 338.12,-610.25 338.12,-610.25 338.12,-749.5 338.12,-749.5 338.12,-755.5 332.12,-761.5 326.12,-761.5"/>
<text xml:space="preserve" text-anchor="start" x="102.88" y="-737.3" font-family="Helvetica,sans-Serif" font-weight="bold" font-size="16.00">appointment_booking</text>
<text xml:space="preserve" text-anchor="start" x="186.12" y="-722" font-family="Helvetica,sans-Serif" font-size="3.00"> </text>
<text xml:space="preserve" text-anchor="start" x="48.88" y="-701.8" font-family="Helvetica,sans-Serif" font-weight="bold" font-size="11.00" fill="#6b7280">Task message</text>
<text xml:space="preserve" text-anchor="start" x="48.88" y="-679.5" font-family="Helvetica,sans-Serif" font-size="12.00">Help the patient schedule an appointment.</text>
<text xml:space="preserve" text-anchor="start" x="48.88" y="-656.75" font-family="Helvetica,sans-Serif" font-size="12.00">Ask for preferred date, time, and in&#45;person vs virtual.</text>
<text xml:space="preserve" text-anchor="start" x="48.88" y="-634" font-family="Helvetica,sans-Serif" font-size="12.00">After collecting details, use the HTTP booking tool.</text>
<text xml:space="preserve" text-anchor="start" x="48.88" y="-610.6" font-family="Helvetica,sans-Serif" font-size="12.00">Note: today is </text>
<text xml:space="preserve" text-anchor="start" x="124.62" y="-610.6" font-family="Helvetica,sans-Serif" font-weight="bold" font-size="12.00" fill="#7c3aed">{{runtime.today}}</text>
<text xml:space="preserve" text-anchor="start" x="221.38" y="-610.6" font-family="Helvetica,sans-Serif" font-size="12.00">.</text>
</g>
<!-- booking_http -->
<g id="node9" class="node">
<title>booking_http</title>
<path fill="#f0fdf4" stroke="#15803d" stroke-dasharray="5,2" d="M620,-697.88C620,-697.88 529,-697.88 529,-697.88 523,-697.88 517,-691.88 517,-685.88 517,-685.88 517,-673.88 517,-673.88 517,-667.88 523,-661.88 529,-661.88 529,-661.88 620,-661.88 620,-661.88 626,-661.88 632,-667.88 632,-673.88 632,-673.88 632,-685.88 632,-685.88 632,-691.88 626,-697.88 620,-697.88"/>
<text xml:space="preserve" text-anchor="middle" x="574.5" y="-681.23" font-family="Helvetica,sans-Serif" font-size="12.00" fill="#166534">book_appointment</text>
<text xml:space="preserve" text-anchor="middle" x="574.5" y="-668.48" font-family="Helvetica,sans-Serif" font-size="12.00" fill="#166534">(http)</text>
</g>
<!-- appointment_booking&#45;&gt;booking_http -->
<g id="edge5" class="edge">
<title>appointment_booking&#45;&gt;booking_http</title>
<path fill="none" stroke="#6b7280" stroke-dasharray="5,2" d="M338.46,-679.88C400.91,-679.88 469.47,-679.88 516.53,-679.88"/>
<text xml:space="preserve" text-anchor="middle" x="427.56" y="-696.98" font-family="Helvetica,sans-Serif" font-size="12.00" fill="#374151"> &#160;Call this tool to book</text>
<text xml:space="preserve" text-anchor="middle" x="427.56" y="-684.23" font-family="Helvetica,sans-Serif" font-size="12.00" fill="#374151"> &#160;the appointment.</text>
</g>
<!-- qa -->
<g id="node4" class="node">
<title>qa</title>
<path fill="#eef2ff" stroke="#1e3a8a" d="M765.88,-517.25C765.88,-517.25 383.12,-517.25 383.12,-517.25 377.12,-517.25 371.12,-511.25 371.12,-505.25 371.12,-505.25 371.12,-388.75 371.12,-388.75 371.12,-382.75 377.12,-376.75 383.12,-376.75 383.12,-376.75 765.88,-376.75 765.88,-376.75 771.88,-376.75 777.88,-382.75 777.88,-388.75 777.88,-388.75 777.88,-505.25 777.88,-505.25 777.88,-511.25 771.88,-517.25 765.88,-517.25"/>
<text xml:space="preserve" text-anchor="start" x="565.12" y="-493.05" font-family="Helvetica,sans-Serif" font-weight="bold" font-size="16.00">qa</text>
<text xml:space="preserve" text-anchor="start" x="574.12" y="-477.75" font-family="Helvetica,sans-Serif" font-size="3.00"> </text>
<text xml:space="preserve" text-anchor="start" x="385.12" y="-457.55" font-family="Helvetica,sans-Serif" font-weight="bold" font-size="11.00" fill="#6b7280">Task message</text>
<text xml:space="preserve" text-anchor="start" x="385.12" y="-435.25" font-family="Helvetica,sans-Serif" font-size="12.00">Answer patient questions about screening, clinic details, or other topics.</text>
<text xml:space="preserve" text-anchor="start" x="385.12" y="-412.5" font-family="Helvetica,sans-Serif" font-size="12.00">Be helpful, empathetic, concise, and use RAG for clinic questions.</text>
<text xml:space="preserve" text-anchor="start" x="385.12" y="-389.75" font-family="Helvetica,sans-Serif" font-size="12.00">When the patient is ready to conclude, use the transition tool.</text>
</g>
<!-- t_qa_to_end -->
<g id="node8" class="node">
<title>t_qa_to_end</title>
<path fill="#fff7ed" stroke="#c2410c" stroke-dasharray="5,2" d="M646.25,-271.25C646.25,-271.25 502.75,-271.25 502.75,-271.25 496.75,-271.25 490.75,-265.25 490.75,-259.25 490.75,-259.25 490.75,-247.25 490.75,-247.25 490.75,-241.25 496.75,-235.25 502.75,-235.25 502.75,-235.25 646.25,-235.25 646.25,-235.25 652.25,-235.25 658.25,-241.25 658.25,-247.25 658.25,-247.25 658.25,-259.25 658.25,-259.25 658.25,-265.25 652.25,-271.25 646.25,-271.25"/>
<text xml:space="preserve" text-anchor="middle" x="574.5" y="-248.22" font-family="Helvetica,sans-Serif" font-size="12.00" fill="#9a3412">transition_to_end_screening</text>
</g>
<!-- qa&#45;&gt;t_qa_to_end -->
<g id="edge7" class="edge">
<title>qa&#45;&gt;t_qa_to_end</title>
<path fill="none" stroke="black" d="M574.5,-376.5C574.5,-344.23 574.5,-307.63 574.5,-282.96"/>
<polygon fill="black" stroke="black" points="578,-283.07 574.5,-273.07 571,-283.07 578,-283.07"/>
<text xml:space="preserve" text-anchor="middle" x="637.88" y="-325.35" font-family="Helvetica,sans-Serif" font-size="12.00" fill="#374151"> &#160;Transition to the end of</text>
<text xml:space="preserve" text-anchor="middle" x="637.88" y="-312.6" font-family="Helvetica,sans-Serif" font-size="12.00" fill="#374151"> &#160;the screening session.</text>
</g>
<!-- qa_rag -->
<g id="node11" class="node">
<title>qa_rag</title>
<path fill="#f5f3ff" stroke="#7c3aed" stroke-dasharray="5,2" d="M1086.75,-465C1086.75,-465 1006.25,-465 1006.25,-465 1000.25,-465 994.25,-459 994.25,-453 994.25,-453 994.25,-441 994.25,-441 994.25,-435 1000.25,-429 1006.25,-429 1006.25,-429 1086.75,-429 1086.75,-429 1092.75,-429 1098.75,-435 1098.75,-441 1098.75,-441 1098.75,-453 1098.75,-453 1098.75,-459 1092.75,-465 1086.75,-465"/>
<text xml:space="preserve" text-anchor="middle" x="1046.5" y="-448.35" font-family="Helvetica,sans-Serif" font-size="12.00" fill="#5b21b6">about_our_clinic</text>
<text xml:space="preserve" text-anchor="middle" x="1046.5" y="-435.6" font-family="Helvetica,sans-Serif" font-size="12.00" fill="#5b21b6">(rag)</text>
</g>
<!-- qa&#45;&gt;qa_rag -->
<g id="edge10" class="edge">
<title>qa&#45;&gt;qa_rag</title>
<path fill="none" stroke="#6b7280" stroke-dasharray="5,2" d="M778.1,-447C857.19,-447 941.23,-447 993.77,-447"/>
<text xml:space="preserve" text-anchor="middle" x="886.06" y="-464.1" font-family="Helvetica,sans-Serif" font-size="12.00" fill="#374151"> &#160;a RAG tool with information</text>
<text xml:space="preserve" text-anchor="middle" x="886.06" y="-451.35" font-family="Helvetica,sans-Serif" font-size="12.00" fill="#374151"> &#160;about our clinic</text>
</g>
<!-- end -->
<g id="node5" class="node">
<title>end</title>
<path fill="#eef2ff" stroke="#1e3a8a" d="M711.88,-154.25C711.88,-154.25 437.12,-154.25 437.12,-154.25 431.12,-154.25 425.12,-148.25 425.12,-142.25 425.12,-142.25 425.12,-12 425.12,-12 425.12,-6 431.12,0 437.12,0 437.12,0 711.88,0 711.88,0 717.88,0 723.88,-6 723.88,-12 723.88,-12 723.88,-142.25 723.88,-142.25 723.88,-148.25 717.88,-154.25 711.88,-154.25"/>
<text xml:space="preserve" text-anchor="start" x="560.25" y="-130.05" font-family="Helvetica,sans-Serif" font-weight="bold" font-size="16.00">end</text>
<text xml:space="preserve" text-anchor="start" x="574.12" y="-114.75" font-family="Helvetica,sans-Serif" font-size="3.00"> </text>
<text xml:space="preserve" text-anchor="start" x="439.12" y="-94.55" font-family="Helvetica,sans-Serif" font-weight="bold" font-size="11.00" fill="#6b7280">Task message</text>
<text xml:space="preserve" text-anchor="start" x="439.12" y="-72.25" font-family="Helvetica,sans-Serif" font-size="12.00">Thank the patient for completing the screening.</text>
<text xml:space="preserve" text-anchor="start" x="439.12" y="-49.5" font-family="Helvetica,sans-Serif" font-size="12.00">Provide brief next steps, then end the conversation.</text>
<text xml:space="preserve" text-anchor="start" x="574.12" y="-33.5" font-family="Helvetica,sans-Serif" font-size="3.00"> </text>
<text xml:space="preserve" text-anchor="start" x="439.12" y="-12.35" font-family="Helvetica,sans-Serif" font-weight="bold" font-size="11.00" fill="#6b7280">post_actions:</text>
<text xml:space="preserve" text-anchor="start" x="510.38" y="-12.35" font-family="Helvetica,sans-Serif" font-size="12.00"> </text>
<text xml:space="preserve" text-anchor="start" x="513.38" y="-12.35" font-family="Helvetica,sans-Serif" font-style="italic" font-size="11.00" fill="#b45309">END_CONVERSATION</text>
</g>
<!-- t_intro_to_intake&#45;&gt;data_intake -->
<g id="edge2" class="edge">
<title>t_intro_to_intake&#45;&gt;data_intake</title>
<path fill="none" stroke="black" d="M186.5,-1287.1C186.5,-1270.99 186.5,-1245.48 186.5,-1218.29"/>
<polygon fill="black" stroke="black" points="190,-1218.49 186.5,-1208.49 183,-1218.49 190,-1218.49"/>
</g>
<!-- t_intake_to_booking&#45;&gt;appointment_booking -->
<g id="edge4" class="edge">
<title>t_intake_to_booking&#45;&gt;appointment_booking</title>
<path fill="none" stroke="black" d="M186.5,-842.05C186.5,-825.53 186.5,-799.39 186.5,-772.93"/>
<polygon fill="black" stroke="black" points="190,-773.12 186.5,-763.12 183,-773.12 190,-773.12"/>
</g>
<!-- t_qa_to_end&#45;&gt;end -->
<g id="edge8" class="edge">
<title>t_qa_to_end&#45;&gt;end</title>
<path fill="none" stroke="black" d="M574.5,-234.92C574.5,-218.36 574.5,-192.09 574.5,-165.75"/>
<polygon fill="black" stroke="black" points="578,-166 574.5,-156 571,-166 578,-166"/>
</g>
<!-- booking_http&#45;&gt;qa -->
<g id="edge6" class="edge">
<title>booking_http&#45;&gt;qa</title>
<path fill="none" stroke="black" d="M574.5,-661.52C574.5,-633.56 574.5,-576.82 574.5,-528.85"/>
<polygon fill="black" stroke="black" points="578,-529.02 574.5,-519.02 571,-529.02 578,-529.02"/>
</g>
<!-- intro_role_message -->
<g id="node12" class="node">
<title>intro_role_message</title>
<path fill="#fffbeb" stroke="#b45309" stroke-dasharray="1,5" d="M1001.75,-1575.88C1001.75,-1575.88 435.25,-1575.88 435.25,-1575.88 429.25,-1575.88 423.25,-1569.88 423.25,-1563.88 423.25,-1563.88 423.25,-1457.38 423.25,-1457.38 423.25,-1451.38 429.25,-1445.38 435.25,-1445.38 435.25,-1445.38 1001.75,-1445.38 1001.75,-1445.38 1007.75,-1445.38 1013.75,-1451.38 1013.75,-1457.38 1013.75,-1457.38 1013.75,-1563.88 1013.75,-1563.88 1013.75,-1569.88 1007.75,-1575.88 1001.75,-1575.88"/>
<text xml:space="preserve" text-anchor="start" x="437.25" y="-1551.67" font-family="Helvetica,sans-Serif" font-weight="bold" font-size="16.00" fill="#92400e">Role message</text>
<text xml:space="preserve" text-anchor="start" x="437.25" y="-1528.88" font-family="Helvetica,sans-Serif" font-size="13.00" fill="#92400e">You are a friendly and professional medical screening assistant.</text>
<text xml:space="preserve" text-anchor="start" x="437.25" y="-1505.38" font-family="Helvetica,sans-Serif" font-size="13.00" fill="#92400e">Responses are converted to audio, so keep them concise and avoid special characters.</text>
<text xml:space="preserve" text-anchor="start" x="437.25" y="-1481.88" font-family="Helvetica,sans-Serif" font-size="13.00" fill="#92400e">Speak clearly and warmly to help patients feel comfortable.</text>
<text xml:space="preserve" text-anchor="start" x="437.25" y="-1458.38" font-family="Helvetica,sans-Serif" font-size="13.00" fill="#92400e">Do not start sentences with short bursts like sure! or absolutely!, since they can sound choppy.</text>
</g>
</g>
</svg>
